<svg id="Layer_1" data-name="Layer 1" xmlns="http://www.w3.org/2000/svg" viewBox="0 0 431.86 452.59"><defs><style>.cls-1{fill:#1B94FF;}</style></defs><title>SMdC</title><path class="cls-1" d="M457,172.48C427,82,321,18,233.17,23.78c-87.44,6.16-156.8,82.44-184.92,170.66S32.84,382.83,97.18,434.84c64.34,52.41,180.3,57,261.59.78C440.06,379.75,486.68,263,457,172.48ZM162.62,320.27c-35.91,0-59.12-16-59.54-49.35h33.05c.76,13.73,10.81,20.84,26.07,20.84,13.87,0,22-6.07,22.17-14.78-.13-8-7.18-12.27-22.87-15.89l-14.91-3.49c-24.68-5.64-39.88-17.85-39.81-39.53-.21-26.56,23.28-44.34,55.91-44.34,33.18,0,54.45,18.05,54.73,44.75h-33c-.9-10.17-8.3-16.24-21.75-16.24s-20.08,5.65-20.15,13.46c-.27,8.5,7.95,12.83,20.92,15.61l12.27,2.8c28.17,6.2,43.57,20.14,43.71,42.94C219.23,304.17,198.17,320.27,162.62,320.27Zm233.92-1.81H362.93v-87.7h-1.18l-34.3,86.8H306l-34.3-87.29h-1.19v88.19h-33.6V175.68h42.73l36.26,88.4h1.67l36.25-88.4h42.74Z" transform="translate(-34.14 -23.42)"/></svg>